# xmcd
#
# Track frame offsets:
#	150
#	18400
#	33755
#	51327
#	70015
#	88787
#	112335
#	129422
#	150805
#	166327
#	184977
#	202315
#	221882
#	240645
#	255467
#	276075
#
# Disc length: 3944 seconds
#
# Revision: 9
# Processed by: cddbd v1.5.2PL0 Copyright (c) Steve Scherf et al.
# Submitted via: EasyCDDAExtractor 15.3.0.1
#
DISCID=e50f6610
DTITLE=Celine Dion - Taking Chances
DYEAR=2007
DGENRE=Pop
TTITLE0=Taking Chances
TTITLE1=Alone
TTITLE2=Eyes On Me
TTITLE3=My Love
TTITLE4=Shadow Of Love
TTITLE5=Surprise Surprise
TTITLE6=This Time
TTITLE7=New Dawn
TTITLE8=A Song For You
TTITLE9=A World To Believe In
TTITLE10=Can't Fight The Feelin'
TTITLE11=I Got Nothin' Left
TTITLE12=Right Next To The Right One
TTITLE13=Fade Away
TTITLE14=That's Just The Woman In Me
TTITLE15=Skies Of L.A.
EXTD=YEAR: 2007
EXTT0=
EXTT1=
EXTT2=
EXTT3=
EXTT4=
EXTT5=
EXTT6=
EXTT7=
EXTT8=
EXTT9=
EXTT10=
EXTT11=
EXTT12=
EXTT13=
EXTT14=
EXTT15=
PLAYORDER=
